# xmcd
# 
# Track frame offsets:
#     150
#     22890
#     45485
#     66265
#     85988
#     100873
#     120113
#     133398
#     147920
# 
# Disc length: 2190
# 
# Revision: 30
# Processed by: cddbd v1.5.2PL0 Copyright (c) Steve Scherf et al.
# Submitted via: fre:ac v1.0.17
# 
DISCID=73088c09
DTITLE=Cream - Wheels Of Fire ～クリームの素晴らしき世界  (Disc1)
DYEAR=2002
DGENRE=Rock
TTITLE0=White Room ～ホワイト・ルーム
TTITLE1=Sitting on Top of the World ～トップ・オブ・ザ・ワールド
TTITLE2=Passing the Time ～時は過ぎて
TTITLE3=As You Said ～おまえの言うように
TTITLE4=Pressed Rat and Warthog ～ねずみといのしし
TTITLE5=Politician ～政治家
TTITLE6=Those Were the Days ～ゾーズ・ワー・ザ・デイズ
TTITLE7=Born Under a Bad Sign ～悪い星の下に
TTITLE8=Deserted Cities of the Heart ～荒れ果てた街
EXTD=2002.09.21  UICY-2369
EXTT0=
EXTT1=
EXTT2=
EXTT3=
EXTT4=
EXTT5=
EXTT6=
EXTT7=
EXTT8=
PLAYORDER=
